# xmcd CD database file
#
# Track frame offsets:
#	150
#	6474
#	19957
#	32596
#	45092
#	59917
#	73313
#	86104
#	121547
#	133628
#
# Disc length: 1827 seconds
#
# Revision: 0
# Processed by: cddbd v1.5.2PL0 Copyright (c) Steve Scherf et al.
# Submitted via: CDex 1.70beta2
#
DISCID=8707210a
DTITLE=Blues Brothers - American Music Legends: Blues Brothers
DYEAR=2008
DGENRE=Blues
TTITLE0=Opening - I Can't Turn You Loose
TTITLE1=Gimme Some Lovin'
TTITLE2=(I Got Everything I Need) Almost
TTITLE3=Rubber Biscuit
TTITLE4=Everybody Needs Somebody to Love
TTITLE5=Soul Man
TTITLE6=Do You Love Me - Mother Popcorn
TTITLE7=Sweet Home Chicago
TTITLE8=Theme from "Rawhide"
TTITLE9=Closing - I Can't Turn You Loose
EXTD=YEAR: 2008
EXTT0=
EXTT1=
EXTT2=
EXTT3=
EXTT4=
EXTT5=
EXTT6=
EXTT7=
EXTT8=
EXTT9=
PLAYORDER=
